# xmcd
#
# Track frame offsets:
# 150
# 18030
# 38903
# 58024
# 80454
# 99090
# 113961
# 134294
# 152380
# 174641
# 192459
# 210317
#
# Disc length: 2997 seconds
#
#
# Revision: 0
# Processed by: cddbd v1.5PL3 Copyright (c) Steve Scherf et al.
# Submitted via: FreeRIP 2.53 
#
DISCID=8f0bb30c
DTITLE=Kathy Mattea - The Innocent Years
DYEAR=1900
DGENRE=Country
TTITLE0=The Innocent Years
TTITLE1=Trouble With Angels
TTITLE2=Why Can't We
TTITLE3=Prove That By Me
TTITLE4=Callin' My Name
TTITLE5=Out OfTthe Blue
TTITLE6=I Have Always Loved You
TTITLE7=My Last Word,(Love Is)
TTITLE8=Trust Me
TTITLE9=That's The Deal
TTITLE10=Innocent Years (Reprise)
TTITLE11=BFD Bonus Track
EXTD=
EXTT0=
EXTT1=
EXTT2=
EXTT3=
EXTT4=
EXTT5=
EXTT6=
EXTT7=
EXTT8=
EXTT9=
EXTT10=
EXTT11=
PLAYORDER=
